<?xml version="1.0" encoding="UTF-8"?>
<svg width="360px" height="221px" viewBox="0 0 360 221" version="1.1" xmlns="http://www.w3.org/2000/svg" xmlns:xlink="http://www.w3.org/1999/xlink">
    <!-- Generator: Sketch 58 (84663) - https://sketch.com -->
    <title>编组 4</title>
    <desc>Created with Sketch.</desc>
    <defs>
        <linearGradient x1="5.28870129%" y1="49.0356585%" x2="63.9037993%" y2="53.2199264%" id="linearGradient-1">
            <stop stop-color="#E8F0F8" offset="0%"></stop>
            <stop stop-color="#D8E2ED" offset="100%"></stop>
        </linearGradient>
        <linearGradient x1="0%" y1="34.0069433%" x2="157.737555%" y2="65.8635063%" id="linearGradient-2">
            <stop stop-color="#D7E0EA" offset="0%"></stop>
            <stop stop-color="#C5CFD9" offset="100%"></stop>
        </linearGradient>
        <linearGradient x1="5.28870129%" y1="46.1066681%" x2="103.86528%" y2="58.0072122%" id="linearGradient-3">
            <stop stop-color="#F2F6FA" offset="0%"></stop>
            <stop stop-color="#DFE7EF" offset="100%"></stop>
        </linearGradient>
        <linearGradient x1="-20.106775%" y1="50%" x2="100%" y2="104.387536%" id="linearGradient-4">
            <stop stop-color="#A5B6C8" offset="0%"></stop>
            <stop stop-color="#CBD8E6" offset="100%"></stop>
        </linearGradient>
        <linearGradient x1="5.28870129%" y1="46.2140652%" x2="103.86528%" y2="57.7863343%" id="linearGradient-5">
            <stop stop-color="#F2F6FA" offset="0%"></stop>
            <stop stop-color="#DFE7EF" offset="100%"></stop>
        </linearGradient>
        <linearGradient x1="20.7877372%" y1="12.2407743%" x2="71.6504092%" y2="108.384375%" id="linearGradient-6">
            <stop stop-color="#CBD8E6" offset="0%"></stop>
            <stop stop-color="#A5B6C8" offset="100%"></stop>
        </linearGradient>
        <linearGradient x1="65.5426698%" y1="65.3984513%" x2="76.3187605%" y2="108.558852%" id="linearGradient-7">
            <stop stop-color="#CBD8E6" offset="0%"></stop>
            <stop stop-color="#A5B6C8" offset="100%"></stop>
        </linearGradient>
        <linearGradient x1="30.1903018%" y1="37.5021343%" x2="56.1601894%" y2="91.7302466%" id="linearGradient-8">
            <stop stop-color="#E8F0F8" offset="0%"></stop>
            <stop stop-color="#D8E2ED" offset="100%"></stop>
        </linearGradient>
        <linearGradient x1="11.2020484%" y1="0%" x2="133.272089%" y2="170.105133%" id="linearGradient-9">
            <stop stop-color="#CBD8E6" offset="0%"></stop>
            <stop stop-color="#A5B6C8" offset="100%"></stop>
        </linearGradient>
    </defs>
    <g id="页面1" stroke="none" stroke-width="1" fill="none" fill-rule="evenodd">
        <g id="系统未知错误---多行" transform="translate(-620.000000, -114.000000)">
            <g id="编组-4" transform="translate(620.000000, 116.000000)">
                <ellipse id="椭圆形备份-4" fill="url(#linearGradient-1)" opacity="0.40297154" cx="180" cy="168.788927" rx="180" ry="50"></ellipse>
                <g id="编组" transform="translate(78.291262, 40.000000)" fill-rule="nonzero">
                    <polygon id="路径" fill="url(#linearGradient-2)" points="65.2087379 60 129.708738 96.283871 129.708738 117.939785 65.2087379 155 0.708737864 117.939785 0.708737864 96.283871"></polygon>
                    <polygon id="路径" fill="url(#linearGradient-3)" points="63.9246267 60 129.708738 96.8166328 65.213809 132 0.708737864 96.2643678"></polygon>
                    <path d="M9.70873786,108 L9.70873786,113.350575 L13.5455715,116.005747 L13.5455715,110.695402 L9.70873786,108 L9.70873786,108 Z M15.8072839,111.821839 L15.8072839,117.132184 L19.6441175,119.787356 L19.6441175,114.477011 L15.8072839,111.821839 Z M21.9058299,115.603448 L21.9058299,120.913793 L25.7426636,123.568966 L25.7426636,118.258621 L21.9058299,115.603448 Z M40.6053453,126.264368 L40.6053453,131.574713 L59.7087379,143 L59.7087379,136.925287 L40.6053453,126.264368 Z" id="形状" fill="url(#linearGradient-4)"></path>
                    <polygon id="路径" fill="url(#linearGradient-2)" points="65.2087379 30 129.708738 66.3091144 129.708738 87.9148753 65.2087379 125 0.708737864 87.9148753 0.708737864 66.3091144"></polygon>
                    <polygon id="路径" fill="url(#linearGradient-5)" points="64.7675328 31 129.708738 66.1781379 65.6143982 102 0.708737864 66.1781379"></polygon>
                    <path d="M9.70873786,78 L9.70873786,83.3103448 L13.5455715,85.9655172 L13.5455715,80.6551724 L9.70873786,78 L9.70873786,78 Z M15.8072839,81.8218391 L15.8072839,87.1321839 L19.6441175,89.7873563 L19.6441175,84.4770115 L15.8072839,81.8218391 Z M21.9058299,85.6034483 L21.9058299,90.9137931 L25.7426636,93.5689655 L25.7426636,88.2586207 L21.9058299,85.6034483 Z M40.6053453,96.2643678 L40.6053453,101.574713 L59.7087379,113 L59.7087379,106.925287 L40.6053453,96.2643678 Z" id="形状" fill="url(#linearGradient-4)"></path>
                    <polygon id="路径" fill="url(#linearGradient-2)" points="65.2087379 0 129.708738 36.3247312 129.708738 57.9397849 65.2087379 95 0.708737864 57.9397849 0.708737864 36.3247312"></polygon>
                    <polygon id="路径" fill="url(#linearGradient-5)" points="65.2087379 0 129.708738 35.7512501 63.5924348 71 0.708737864 35.7512501"></polygon>
                    <path d="M9.70873786,48 L9.70873786,53.3164557 L13.5455715,55.9746835 L13.5455715,50.6582278 L9.70873786,48 Z M15.8072839,51.7859609 L15.8072839,57.1426928 L19.6441175,59.8009206 L19.6441175,54.4844649 L15.8072839,51.7859609 L15.8072839,51.7859609 Z M21.9058299,55.6121979 L21.9058299,60.9286536 L25.7426636,63.5868815 L25.7426636,58.2704258 L21.9058299,55.6121979 Z M40.6053453,66.2451093 L40.6053453,71.561565 L59.7087379,83 L59.7087379,76.9182969 L40.6053453,66.2451093 Z" id="形状" fill="url(#linearGradient-4)"></path>
                </g>
                <g id="编组-7备份" transform="translate(190.000000, 102.000000)">
                    <polygon id="路径-4备份" fill="url(#linearGradient-6)" points="28.9 52.099326 29.0425781 10.5 69.5425781 24.0253165 84.55625 83.3142438 70.0669836 75.1879101 63.259093 71.3696912 39.0137749 57.7716566"></polygon>
                    <polygon id="路径-4" fill="url(#linearGradient-7)" points="0.8 74.4444412 22.0050781 0.4 69.5128906 23.9 50.6076172 103.630476 39.277177 96.9911178 41.2394531 88.4 13.1430664 72.720459 10.7299881 80.3319495"></polygon>
                    <polygon id="路径-4备份-2" fill="url(#linearGradient-8)" points="0 74.0444412 21.2050781 0 68.7128906 23.5 49.8076172 103.230476 38.477177 96.5911178 40.4394531 88 13.1430664 72.720459 10.7299881 80.3319495"></polygon>
                    <rect id="矩形" fill="#BDCBDB" transform="translate(30.953846, 5.122331) rotate(26.000000) translate(-30.953846, -5.122331) " x="28" y="3.64540752" width="5.90769231" height="2.95384615"></rect>
                    <rect id="矩形" fill="#BDCBDB" transform="translate(59.953846, 19.272331) rotate(26.000000) translate(-59.953846, -19.272331) " x="57" y="17.7954075" width="5.90769231" height="2.95384615"></rect>
                    <g id="编组" transform="translate(36.340761, 42.891266) rotate(24.000000) translate(-36.340761, -42.891266) translate(23.840761, 30.391266)" fill="url(#linearGradient-9)" fill-rule="nonzero">
                        <path d="M11.2664674,1.02450556 C12.2101784,0.424124235 13.4078722,0.797761455 13.9416481,1.85885301 L13.9416481,1.85885301 L23.9628211,21.4128067 C24.1423828,21.756827 24.2356822,22.1491379 24.2328638,22.5480262 C24.2241956,23.7670483 23.3382851,24.747335 22.2542535,24.7378655 L22.2542535,24.7378655 L2.21190746,24.7378655 C1.85726849,24.7408869 1.50850373,24.6359279 1.20264084,24.4340629 C0.267533314,23.8169211 -0.0454617273,22.4642235 0.503339876,21.4128067 L0.503339876,21.4128067 L10.5245129,1.85885301 C10.6999023,1.51016204 10.9563894,1.22173559 11.2664674,1.02450556 Z M12.2270217,2.83736113 C12.1741231,2.83736113 12.1253974,2.86966583 12.099788,2.921716 L12.099788,2.921716 L2.07873613,22.4211639 C2.04482271,22.4734667 2.04153812,22.5433428 2.07035915,22.5993746 C2.09918018,22.6554065 2.15468097,22.6870456 2.21190746,22.6800665 L2.21190746,22.6800665 L22.2542535,22.6800665 C22.308814,22.6831333 22.3602998,22.6515531 22.387546,22.5983078 C22.4134774,22.5476174 22.4134774,22.4853445 22.387546,22.4347904 L22.387546,22.4347904 L12.3542555,2.921716 C12.328646,2.86966583 12.2799204,2.83736113 12.2270217,2.83736113 Z M11.6331868,19.6281406 C11.9426566,19.4040728 12.3238544,19.4042568 12.6331867,19.6286233 C12.942519,19.8529899 13.132991,20.2674523 13.1328538,20.7158866 L13.1328538,20.7158866 C13.1326337,21.4102383 12.6846118,21.971899 12.1324141,21.9717611 C11.5802164,21.9716231 11.1326341,21.4092727 11.1328538,20.7160246 L11.1328538,20.7160246 C11.1329912,20.2664868 11.3237171,19.8522084 11.6331868,19.6281406 Z M12.1323042,7.97176131 C12.3508892,7.97157857 12.5605795,8.08039404 12.7152454,8.27426977 C12.8699114,8.4681455 12.9568837,8.73120019 12.9570294,9.00556479 L12.9570294,9.00556479 L12.9570294,17.1297825 C12.9570294,17.7012364 12.5881283,18.1642754 12.1328537,18.1642754 C11.677674,18.1642754 11.308678,17.7011171 11.308678,17.1297825 L11.308678,17.1297825 L11.308678,9.00556479 C11.3089811,8.43476866 11.6775536,7.97214194 12.1323042,7.97176131 Z" id="形状结合"></path>
                    </g>
                </g>
                <g id="编组-2" transform="translate(167.000000, 0.000000)" fill-rule="nonzero">
                    <g id="编组" opacity="0.248115" stroke="#F74C21" stroke-width="3">
                        <path d="M58.125,0 L5.875,0 C2.63125,0 0,1.94598547 0,4.34495567 L0,28.1959889 C0,30.5949591 2.63125,32.5409446 5.875,32.5409446 L19.375,32.5409446 L19.375,38.7486845 C19.4,38.9381985 19.475,39.1323348 19.61875,39.307982 C20.13125,39.9689699 21.2875,40.1954623 22.18125,39.8164342 L23.125,39.4142947 L38.7875,32.7258363 C39.075,32.6056567 39.39375,32.5409446 39.725,32.5409446 L58.125,32.5409446 C61.36875,32.5409446 64,30.5949591 64,28.1959889 L64,4.34495567 C64,1.94598547 61.36875,0 58.125,0 Z" id="形状"></path>
                    </g>
                    <path d="M14.1171875,12.6484375 L9.28125,12.6484375 L9.28125,15.546875 L13.9765625,15.546875 L13.9765625,17.2578125 L9.28125,17.2578125 L9.28125,21.2890625 L14.1171875,21.2890625 L14.1171875,23 L7.4609375,23 L7.4609375,10.9375 L14.1171875,10.9375 L14.1171875,12.6484375 Z M20.59375,17.859375 L24.328125,23 L22.1015625,23 L18.65625,18.0625 L18.328125,18.0625 L18.328125,23 L16.5078125,23 L16.5078125,10.9375 L18.640625,10.9375 C20.234383,10.9375 21.3854131,11.2369762 22.09375,11.8359375 C22.8750039,12.5026075 23.265625,13.382807 23.265625,14.4765625 C23.265625,15.3307334 23.0208358,16.0651011 22.53125,16.6796875 C22.0416642,17.2942739 21.3958373,17.6874991 20.59375,17.859375 Z M18.328125,16.4765625 L18.90625,16.4765625 C20.630217,16.4765625 21.4921875,15.8177149 21.4921875,14.5 C21.4921875,13.2656188 20.6536542,12.6484375 18.9765625,12.6484375 L18.328125,12.6484375 L18.328125,16.4765625 Z M30.2265625,17.859375 L33.9609375,23 L31.734375,23 L28.2890625,18.0625 L27.9609375,18.0625 L27.9609375,23 L26.140625,23 L26.140625,10.9375 L28.2734375,10.9375 C29.8671955,10.9375 31.0182256,11.2369762 31.7265625,11.8359375 C32.5078164,12.5026075 32.8984375,13.382807 32.8984375,14.4765625 C32.8984375,15.3307334 32.6536483,16.0651011 32.1640625,16.6796875 C31.6744767,17.2942739 31.0286498,17.6874991 30.2265625,17.859375 Z M27.9609375,16.4765625 L28.5390625,16.4765625 C30.2630295,16.4765625 31.125,15.8177149 31.125,14.5 C31.125,13.2656188 30.2864667,12.6484375 28.609375,12.6484375 L27.9609375,12.6484375 L27.9609375,16.4765625 Z M34.8984375,16.9140625 C34.8984375,15.2161373 35.5208271,13.7578186 36.765625,12.5390625 C38.0052145,11.3203064 39.494783,10.7109375 41.234375,10.7109375 C42.9531336,10.7109375 44.4270772,11.3255147 45.65625,12.5546875 C46.8906312,13.7838603 47.5078125,15.260408 47.5078125,16.984375 C47.5078125,18.7187587 46.888027,20.1900981 45.6484375,21.3984375 C44.4036396,22.6119852 42.9010505,23.21875 41.140625,23.21875 C39.5833255,23.21875 38.184902,22.6796929 36.9453125,21.6015625 C35.5807223,20.4088482 34.8984375,18.8463638 34.8984375,16.9140625 Z M36.734375,16.9375 C36.734375,18.27084 37.1822872,19.3671832 38.078125,20.2265625 C38.9687545,21.0859418 39.99739,21.515625 41.1640625,21.515625 C42.4296938,21.515625 43.4973915,21.0781294 44.3671875,20.203125 C45.2369835,19.3177039 45.671875,18.2395897 45.671875,16.96875 C45.671875,15.6822852 45.2421918,14.604171 44.3828125,13.734375 C43.5286416,12.8593706 42.4713605,12.421875 41.2109375,12.421875 C39.9557229,12.421875 38.8958377,12.8593706 38.03125,13.734375 C37.1666623,14.5989627 36.734375,15.6666603 36.734375,16.9375 Z M51.9296875,10.9375 C53.5234455,10.9375 54.6744756,11.2369762 55.3828125,11.8359375 C56.1640664,12.5026075 56.5546875,13.382807 56.5546875,14.4765625 C56.5546875,15.3307334 56.3098983,16.0651011 55.8203125,16.6796875 C55.3307267,17.2942739 54.6848998,17.6874991 53.8828125,17.859375 L57.6171875,23 L55.390625,23 L51.9453125,18.0625 L51.6171875,18.0625 L51.6171875,23 L49.796875,23 L49.796875,10.9375 L51.9296875,10.9375 Z M52.265625,12.6484375 L51.6171875,12.6484375 L51.6171875,16.4765625 L52.1953125,16.4765625 C53.9192795,16.4765625 54.78125,15.8177149 54.78125,14.5 C54.78125,13.2656188 53.9427167,12.6484375 52.265625,12.6484375 L52.265625,12.6484375 Z" id="ERROR" fill="#F74C21" opacity="0.715888" transform="translate(32.539062, 16.964844) rotate(-360.000000) translate(-32.539062, -16.964844) "></path>
                </g>
            </g>
        </g>
    </g>
</svg>