<?xml version="1.0" encoding="UTF-8"?>
<svg width="470px" height="364px" viewBox="0 0 470 364" version="1.1" xmlns="http://www.w3.org/2000/svg" xmlns:xlink="http://www.w3.org/1999/xlink">
    <!-- Generator: Sketch 58 (84663) - https://sketch.com -->
    <title>编组 3</title>
    <desc>Created with Sketch.</desc>
    <defs>
        <polygon id="path-1" points="4.54747351e-13 56.5607971 85.6922114 0.550199569 171.384423 56.5607971 85.6922114 112.571395"></polygon>
        <linearGradient x1="5.28870129%" y1="44.7673296%" x2="63.9037993%" y2="67.4718333%" id="linearGradient-3">
            <stop stop-color="#D7E0EA" offset="0%"></stop>
            <stop stop-color="#B6C5D5" offset="100%"></stop>
        </linearGradient>
        <linearGradient x1="50%" y1="-13.438398%" x2="50%" y2="86.7344648%" id="linearGradient-4">
            <stop stop-color="#D7E0EA" offset="0%"></stop>
            <stop stop-color="#B6C5D5" offset="100%"></stop>
        </linearGradient>
        <linearGradient x1="47.724513%" y1="14.5585592%" x2="47.724513%" y2="91.0951327%" id="linearGradient-5">
            <stop stop-color="#D7E0EA" offset="0%"></stop>
            <stop stop-color="#B6C5D5" offset="100%"></stop>
        </linearGradient>
        <linearGradient x1="50%" y1="0%" x2="50%" y2="95.2431127%" id="linearGradient-6">
            <stop stop-color="#D7E0EA" offset="0%"></stop>
            <stop stop-color="#B6C5D5" offset="100%"></stop>
        </linearGradient>
        <linearGradient x1="47.3844831%" y1="7.74507204%" x2="47.3844831%" y2="102.227654%" id="linearGradient-7">
            <stop stop-color="#B3D2F5" stop-opacity="0" offset="0%"></stop>
            <stop stop-color="#B3D2F5" offset="100%"></stop>
        </linearGradient>
        <linearGradient x1="5.28870129%" y1="46.7103834%" x2="43.3752111%" y2="63.1607136%" id="linearGradient-8">
            <stop stop-color="#D7E0EA" offset="0%"></stop>
            <stop stop-color="#D7E0EA" offset="0%"></stop>
            <stop stop-color="#C5CFD9" offset="100%"></stop>
        </linearGradient>
        <polygon id="path-9" points="0 55.8811388 85.5199931 0 171.039986 55.8811388 85.5199931 111.762278"></polygon>
        <linearGradient x1="18.4848665%" y1="37.7409056%" x2="79.2750169%" y2="63.9246786%" id="linearGradient-11">
            <stop stop-color="#F4F7FB" offset="0%"></stop>
            <stop stop-color="#E8EEF5" offset="100%"></stop>
        </linearGradient>
        <linearGradient x1="5.28870129%" y1="44.6678761%" x2="63.9037993%" y2="67.8039075%" id="linearGradient-12">
            <stop stop-color="#D7E0EA" offset="0%"></stop>
            <stop stop-color="#B6C5D5" offset="100%"></stop>
        </linearGradient>
        <linearGradient x1="100%" y1="58.7021654%" x2="0%" y2="29.7558657%" id="linearGradient-13">
            <stop stop-color="#003D96" offset="0%"></stop>
            <stop stop-color="#1169B4" offset="100%"></stop>
        </linearGradient>
        <linearGradient x1="5.28870129%" y1="40.2914986%" x2="43.3752111%" y2="88.8406376%" id="linearGradient-14">
            <stop stop-color="#C5D2DF" offset="0%"></stop>
            <stop stop-color="#D7E0EA" offset="100%"></stop>
            <stop stop-color="#D7E0EA" offset="100%"></stop>
        </linearGradient>
        <linearGradient x1="19.0461579%" y1="37.5021343%" x2="90.0641514%" y2="107.633998%" id="linearGradient-15">
            <stop stop-color="#D7E0EA" offset="0%"></stop>
            <stop stop-color="#D7E0EA" offset="22.9006163%"></stop>
            <stop stop-color="#B6C5D5" offset="100%"></stop>
        </linearGradient>
        <linearGradient x1="38.3671171%" y1="64.6799818%" x2="60.2849232%" y2="80.6200193%" id="linearGradient-16">
            <stop stop-color="#D7E0EA" offset="0%"></stop>
            <stop stop-color="#B6C5D5" offset="100%"></stop>
        </linearGradient>
        <linearGradient x1="5.28870129%" y1="45.1446318%" x2="63.9037993%" y2="66.2120252%" id="linearGradient-17">
            <stop stop-color="#D7E0EA" offset="0%"></stop>
            <stop stop-color="#B6C5D5" offset="100%"></stop>
        </linearGradient>
        <linearGradient x1="75.0073196%" y1="11.0494516%" x2="16.5243685%" y2="87.7154723%" id="linearGradient-18">
            <stop stop-color="#F3F7FB" offset="0%"></stop>
            <stop stop-color="#E3EBF4" offset="57.8218239%"></stop>
            <stop stop-color="#D7E0EA" offset="100%"></stop>
        </linearGradient>
        <path d="M19.4714039,0.00574172635 C25.7666513,-0.118607232 30.5366708,1.7768192 33.7814625,5.69202102 C38.507374,11.9805952 40.3381845,19.2266076 39.2738941,27.4300581 C38.8375515,34.4343404 37.4117295,39.2243387 34.9964283,41.8000532 C33.4020568,43.5003157 31.047942,44.7821089 26.1298512,47.5242964 C21.2117603,50.2664839 9.89034921,44.5316206 9.80355722,43.6609541 C3.92515361,40.8765542 0.72877821,35.9762807 0.214431011,28.9601334 C0.131935151,27.027209 0.0866403626,25.9786867 0.078546646,25.8145662 L0.0795581977,25.6912886 C0.0593759061,10.0304813 6.52332447,1.46863235 19.4714039,0.00574172635 Z" id="path-19"></path>
        <linearGradient x1="5.28870129%" y1="48.1742513%" x2="43.3752111%" y2="57.3042419%" id="linearGradient-21">
            <stop stop-color="#D7E0EA" offset="0%"></stop>
            <stop stop-color="#D7E0EA" offset="0%"></stop>
            <stop stop-color="#B6C5D5" offset="100%"></stop>
        </linearGradient>
        <linearGradient x1="39.2379142%" y1="4.73720153%" x2="39.2379142%" y2="94.4754868%" id="linearGradient-22">
            <stop stop-color="#EFF4FA" offset="0%"></stop>
            <stop stop-color="#EFF3F9" offset="72.7138846%"></stop>
            <stop stop-color="#DFE5EC" offset="100%"></stop>
        </linearGradient>
        <ellipse id="path-23" cx="36.5" cy="38.5" rx="3.5" ry="5.5"></ellipse>
        <filter x="-14.3%" y="-9.1%" width="128.6%" height="118.2%" filterUnits="objectBoundingBox" id="filter-24">
            <feOffset dx="2" dy="1" in="SourceAlpha" result="shadowOffsetInner1"></feOffset>
            <feComposite in="shadowOffsetInner1" in2="SourceAlpha" operator="arithmetic" k2="-1" k3="1" result="shadowInnerInner1"></feComposite>
            <feColorMatrix values="0 0 0 0 0.861674875   0 0 0 0 0.895058452   0 0 0 0 0.928442029  0 0 0 1 0" type="matrix" in="shadowInnerInner1"></feColorMatrix>
        </filter>
        <linearGradient x1="88.7668336%" y1="36.4747458%" x2="22.2753367%" y2="68.879806%" id="linearGradient-25">
            <stop stop-color="#D1DBE6" offset="0%"></stop>
            <stop stop-color="#CCD2D7" offset="100%"></stop>
        </linearGradient>
        <linearGradient x1="87.3515278%" y1="29.4602211%" x2="-21.6952709%" y2="70.5280059%" id="linearGradient-26">
            <stop stop-color="#F6FAFD" offset="0%"></stop>
            <stop stop-color="#CFDAE5" offset="100%"></stop>
        </linearGradient>
        <linearGradient x1="98.623891%" y1="85.0865405%" x2="21.4937068%" y2="6.60628373%" id="linearGradient-27">
            <stop stop-color="#D1DBE6" offset="0%"></stop>
            <stop stop-color="#F6FAFD" offset="100%"></stop>
        </linearGradient>
        <linearGradient x1="73.7367731%" y1="25.3354361%" x2="6.253166%" y2="40.2106119%" id="linearGradient-28">
            <stop stop-color="#F6FAFD" offset="0%"></stop>
            <stop stop-color="#D1DBE6" offset="100%"></stop>
        </linearGradient>
        <linearGradient x1="80.5918129%" y1="11.0494516%" x2="9.04877969%" y2="87.7154723%" id="linearGradient-29">
            <stop stop-color="#F3F7FB" offset="0%"></stop>
            <stop stop-color="#E3EBF4" offset="57.8218239%"></stop>
            <stop stop-color="#D7E0EA" offset="100%"></stop>
        </linearGradient>
    </defs>
    <g id="页面1" stroke="none" stroke-width="1" fill="none" fill-rule="evenodd">
        <g id="404" transform="translate(-656.000000, -151.000000)">
            <g id="编组-3" transform="translate(658.000000, 136.000000)">
                <g id="4-1" transform="translate(165.379545, 88.000000)" fill-rule="nonzero">
                    <polygon id="4" fill="#BCCCDC" points="3.3 33.0814815 18.8025723 0 26.2196141 0 10.526045 33.0814815 22.6543408 33.0814815 22.6543408 19.8045267 29.3073955 19.8045267 29.3073955 33.0814815 33 33.0814815 33 39.3238683 29.3073955 39.3238683 29.3073955 46.2 22.6543408 46.2 22.6543408 39.3238683 3.3 39.3238683"></polygon>
                    <polygon id="4" fill="#D6DFE9" points="0 33.0814815 15.5025723 0 22.9196141 0 7.22604502 33.0814815 19.3543408 33.0814815 19.3543408 19.8045267 26.0073955 19.8045267 26.0073955 33.0814815 29.7 33.0814815 29.7 39.3238683 26.0073955 39.3238683 26.0073955 46.2 19.3543408 46.2 19.3543408 39.3238683 0 39.3238683"></polygon>
                </g>
                <g id="4-2" transform="translate(268.379545, 80.000000)" fill-rule="nonzero">
                    <polygon id="4" fill="#BCCCDC" points="3.3 33.0814815 18.8025723 0 26.2196141 0 10.526045 33.0814815 22.6543408 33.0814815 22.6543408 19.8045267 29.3073955 19.8045267 29.3073955 33.0814815 33 33.0814815 33 39.3238683 29.3073955 39.3238683 29.3073955 46.2 22.6543408 46.2 22.6543408 39.3238683 3.3 39.3238683"></polygon>
                    <polygon id="4" fill="#D6DFE9" points="0 33.0814815 15.5025723 0 22.9196141 0 7.22604502 33.0814815 19.3543408 33.0814815 19.3543408 19.8045267 26.0073955 19.8045267 26.0073955 33.0814815 29.7 33.0814815 29.7 39.3238683 26.0073955 39.3238683 26.0073955 46.2 19.3543408 46.2 19.3543408 39.3238683 0 39.3238683"></polygon>
                </g>
                <g id="0" transform="translate(213.379545, 58.000000)" fill-rule="nonzero">
                    <path d="M28.1054688,17.65625 C27.9882807,13.3788849 25.9863476,11.2011723 22.0996094,11.1230469 C18.1933398,11.2011723 16.2011723,13.3788849 16.1230469,17.65625 L16.1230469,35.7617187 C16.2011723,40.0781466 18.1933398,42.2558592 22.0996094,42.2949219 C25.9863476,42.2558592 27.9882807,40.0781466 28.1054688,35.7617187 L28.1054688,17.65625 Z M10,17.2753906 C10.0377157,13.4661043 11.2133877,10.5035131 13.5270499,8.38753487 L13.7792969,8.1640625 C16.1035272,6.05467695 18.876937,5 22.0996094,5 C25.4199385,5 28.2421759,6.05467695 30.5664062,8.1640625 C32.9296993,10.2929794 34.1503902,13.3300584 34.2285156,17.2753906 L34.2285156,36.1132812 C34.1503902,40.0390821 32.9296993,43.0663956 30.5664062,45.1953125 C28.2421759,47.304698 25.4199385,48.3789061 22.0996094,48.4179687 C19.011215,48.3805337 16.3354247,47.3924183 14.0721652,45.4535941 L13.7792969,45.1953125 C11.2988157,43.0663956 10.0390627,40.0390821 10,36.1132812 L10,17.2753906 Z" fill="#9DB4CC" opacity="0.600000024" transform="translate(22.114258, 26.708984) rotate(21.000000) translate(-22.114258, -26.708984) "></path>
                    <path d="M25.1054688,15.65625 C24.9882807,11.3788849 22.9863476,9.20117227 19.0996094,9.12304688 C15.1933398,9.20117227 13.2011723,11.3788849 13.1230469,15.65625 L13.1230469,33.7617188 C13.2011723,38.0781466 15.1933398,40.2558592 19.0996094,40.2949219 C22.9863476,40.2558592 24.9882807,38.0781466 25.1054688,33.7617188 L25.1054688,15.65625 Z M7,15.2753906 C7.03771571,11.4661043 8.21338768,8.50351309 10.5270499,6.38753487 L10.7792969,6.1640625 C13.1035272,4.05467695 15.876937,3 19.0996094,3 C22.4199385,3 25.2421759,4.05467695 27.5664062,6.1640625 C29.9296993,8.29297939 31.1503902,11.3300584 31.2285156,15.2753906 L31.2285156,34.1132812 C31.1503902,38.0390821 29.9296993,41.0663956 27.5664062,43.1953125 C25.2421759,45.304698 22.4199385,46.3789061 19.0996094,46.4179688 C16.011215,46.3805337 13.3354247,45.3924183 11.0721652,43.4535941 L10.7792969,43.1953125 C8.29881572,41.0663956 7.0390627,38.0390821 7,34.1132812 L7,15.2753906 Z" fill="#D6DFE9" transform="translate(19.114258, 24.708984) rotate(21.000000) translate(-19.114258, -24.708984) "></path>
                </g>
                <g id="波纹" transform="translate(0.000000, 74.000000)">
                    <g id="编组" transform="translate(148.585298, 124.000000)">
                        <mask id="mask-2" fill="white">
                            <use xlink:href="#path-1"></use>
                        </mask>
                        <g id="Clip-2"></g>
                    </g>
                    <polygon id="Stroke-3" stroke="url(#linearGradient-3)" stroke-width="1.53" opacity="0.300000012" points="131 152 233 218 335 152 233 86"></polygon>
                    <polygon id="Stroke-3" stroke="url(#linearGradient-4)" stroke-width="1.53" opacity="0.200000003" points="99 152 233 239 367 152 233 65"></polygon>
                    <polygon id="Stroke-3" stroke="url(#linearGradient-5)" stroke-width="1.53" opacity="0.149999991" points="58 152 233 265 408 152 233 39"></polygon>
                    <polygon id="Stroke-3" stroke="url(#linearGradient-6)" stroke-width="1.53" opacity="0.100000001" points="0 152 233 304 466 152 233 0"></polygon>
                </g>
                <g id="模型台" transform="translate(148.379545, 0.000000)">
                    <polygon id="路径-50-3备份" fill="url(#linearGradient-7)" fill-rule="nonzero" opacity="0.33" points="0 199 0 0 172 0 172 199"></polygon>
                    <g id="编组-2" transform="translate(0.000000, 136.890424)">
                        <g id="底座">
                            <polygon id="Fill-5" fill="url(#linearGradient-8)" points="0 88.08168 0 55.8194541 171.039986 56.0210855 171.039986 88.08168 85.5199931 143.570514"></polygon>
                            <g id="编组">
                                <mask id="mask-10" fill="white">
                                    <use xlink:href="#path-9"></use>
                                </mask>
                                <g id="Clip-7"></g>
                                <polygon id="Fill-6" fill="url(#linearGradient-11)" mask="url(#mask-10)" points="0 55.8811388 85.5199931 0 171.039986 55.8811388 85.5199931 111.762278"></polygon>
                            </g>
                            <g id="编组" opacity="0.400000006" fill="#C4D1DF">
                                <path d="M85.5395105,0.107061995 L97.8239591,8.13514486 C97.8858693,8.17588064 97.8858693,8.27510883 97.8239591,8.31584461 L85.5395105,16.342883 C85.5111787,16.3627286 85.4755017,16.3627286 85.4471699,16.342883 L73.1627213,8.31584461 C73.1008112,8.27510883 73.1008112,8.17588064 73.1627213,8.13514486 L85.4471699,0.107061995 C85.4755017,0.0882608641 85.5111787,0.0882608641 85.5395105,0.107061995 L85.5395105,0.107061995 Z M73.3935729,8.22497248 L85.4933402,16.1318925 L97.5931076,8.22497248 L85.4933402,0.318052463 L73.3935729,8.22497248 Z" id="Fill-8"></path>
                                <path d="M97.7224894,8.04698844 L110.005889,16.0740268 C110.067799,16.1147626 110.067799,16.2139908 110.005889,16.2547266 L97.7224894,24.2817649 C97.6941576,24.3016105 97.6574312,24.3016105 97.6301488,24.2817649 L85.3457002,16.2547266 C85.28379,16.2139908 85.28379,16.1147626 85.3457002,16.0740268 L97.6301488,8.04698844 C97.6574312,8.0271428 97.6941576,8.0271428 97.7224894,8.04698844 L97.7224894,8.04698844 Z M85.5765517,16.1638544 L97.6763191,24.0707744 L109.775037,16.1638544 L97.6763191,8.25797891 L85.5765517,16.1638544 Z" id="Fill-10"></path>
                                <path d="M109.904524,15.9858704 L122.188972,24.0129087 C122.250883,24.0536445 122.250883,24.1528727 122.188972,24.1936085 L109.904524,32.2216914 C109.876192,32.2404925 109.840515,32.2404925 109.812183,32.2216914 L97.528784,24.1936085 C97.4668738,24.1528727 97.4668738,24.0536445 97.528784,24.0129087 L109.812183,15.9858704 C109.840515,15.9660247 109.876192,15.9660247 109.904524,15.9858704 L109.904524,15.9858704 Z M109.858354,16.1968609 L97.7596355,24.1027364 L109.858354,32.0107009 L121.958121,24.1027364 L109.858354,16.1968609 Z" id="Fill-12"></path>
                                <path d="M122.087503,23.9247523 L134.371951,31.9528352 C134.433861,31.9925265 134.433861,32.0927992 134.371951,32.1324904 L122.087503,40.1605733 C122.059171,40.1793744 122.023494,40.1793744 121.995162,40.1605733 L109.710713,32.1324904 C109.648803,32.0927992 109.648803,31.9925265 109.710713,31.9528352 L121.995162,23.9247523 C122.023494,23.9059512 122.059171,23.9059512 122.087503,23.9247523 L122.087503,23.9247523 Z M122.041332,24.1357428 L109.941565,32.0416183 L122.041332,39.9495828 L134.1411,32.0416183 L122.041332,24.1357428 Z" id="Fill-14"></path>
                                <path d="M134.270586,31.8635298 L146.553986,39.8916127 C146.616945,39.931304 146.616945,40.0315766 146.553986,40.0712679 L134.270586,48.0993508 C134.242255,48.1181519 134.206578,48.1181519 134.178246,48.0993508 L121.893797,40.0712679 C121.831887,40.0315766 121.831887,39.931304 121.893797,39.8916127 L134.178246,31.8635298 C134.206578,31.8447287 134.242255,31.8447287 134.270586,31.8635298 L134.270586,31.8635298 Z M122.124649,39.9803958 L134.224416,47.8883603 L146.323134,39.9803958 L134.224416,32.0745203 L122.124649,39.9803958 Z" id="Fill-16"></path>
                                <path d="M146.452621,39.8024118 L158.737069,47.8304946 C158.79898,47.8701859 158.79898,47.9704586 158.737069,48.0101499 L146.452621,56.0382327 C146.425338,56.0570339 146.388612,56.0570339 146.36028,56.0382327 L134.076881,48.0101499 C134.014971,47.9704586 134.014971,47.8701859 134.076881,47.8304946 L146.36028,39.8024118 C146.388612,39.7836106 146.425338,39.7836106 146.452621,39.8024118 L146.452621,39.8024118 Z M134.307733,47.9203222 L146.406451,55.8272423 L158.506218,47.9203222 L146.406451,40.0134022 L134.307733,47.9203222 Z" id="Fill-18"></path>
                                <path d="M158.6356,47.7412937 L170.920048,55.7693766 C170.981958,55.8101123 170.981958,55.9093405 170.920048,55.9490318 L158.6356,63.9771147 C158.607268,63.9969603 158.571591,63.9969603 158.543259,63.9771147 L146.258811,55.9490318 C146.1969,55.9093405 146.1969,55.8101123 146.258811,55.7693766 L158.543259,47.7412937 C158.571591,47.7224926 158.607268,47.7224926 158.6356,47.7412937 L158.6356,47.7412937 Z M146.489662,55.8592042 L158.589429,63.7661242 L170.689197,55.8592042 L158.589429,47.9522842 L146.489662,55.8592042 Z" id="Fill-20"></path>
                                <path d="M73.3564267,8.04698844 L85.6408753,16.0740268 C85.7027855,16.1147626 85.7027855,16.2139908 85.6408753,16.2547266 L73.3564267,24.2817649 C73.328095,24.3016105 73.2924179,24.3016105 73.2640861,24.2817649 L60.9796376,16.2547266 C60.9177274,16.2139908 60.9177274,16.1147626 60.9796376,16.0740268 L73.2640861,8.04698844 C73.2924179,8.0271428 73.328095,8.0271428 73.3564267,8.04698844 L73.3564267,8.04698844 Z M61.2115384,16.1638544 L73.3102564,24.0707744 L85.4100238,16.1638544 L73.3102564,8.25797891 L61.2115384,16.1638544 Z" id="Fill-22"></path>
                                <path d="M85.5395105,15.9858704 L97.8239591,24.0129087 C97.8858693,24.0536445 97.8858693,24.1528727 97.8239591,24.1936085 L85.5395105,32.2216914 C85.5111787,32.2404925 85.4755017,32.2404925 85.4471699,32.2216914 L73.1627213,24.1936085 C73.1008112,24.1528727 73.1008112,24.0536445 73.1627213,24.0129087 L85.4471699,15.9858704 C85.4755017,15.9660247 85.5111787,15.9660247 85.5395105,15.9858704 L85.5395105,15.9858704 Z M73.3935729,24.1027364 L85.4933402,32.0107009 L97.5931076,24.1027364 L85.4933402,16.1968609 L73.3935729,24.1027364 Z" id="Fill-24"></path>
                                <path d="M97.7224894,23.9247523 L110.005889,31.9528352 C110.067799,31.9925265 110.067799,32.0927992 110.005889,32.1324904 L97.7224894,40.1605733 C97.6941576,40.1793744 97.6574312,40.1793744 97.6301488,40.1605733 L85.3457002,32.1324904 C85.28379,32.0927992 85.28379,31.9925265 85.3457002,31.9528352 L97.6301488,23.9247523 C97.6574312,23.9059512 97.6941576,23.9059512 97.7224894,23.9247523 L97.7224894,23.9247523 Z M85.5765517,32.0416183 L97.6763191,39.9495828 L109.775037,32.0416183 L97.6763191,24.1357428 L85.5765517,32.0416183 Z" id="Fill-26"></path>
                                <path d="M109.904524,31.8635298 L122.188972,39.8916127 C122.250883,39.931304 122.250883,40.0315766 122.188972,40.0712679 L109.904524,48.0993508 C109.876192,48.1181519 109.840515,48.1181519 109.812183,48.0993508 L97.528784,40.0712679 C97.4668738,40.0315766 97.4668738,39.931304 97.528784,39.8916127 L109.812183,31.8635298 C109.840515,31.8447287 109.876192,31.8447287 109.904524,31.8635298 L109.904524,31.8635298 Z M97.7596355,39.9803958 L109.858354,47.8883603 L121.958121,39.9803958 L109.858354,32.0745203 L97.7596355,39.9803958 Z" id="Fill-28"></path>
                                <path d="M122.087503,39.8024118 L134.371951,47.8304946 C134.433861,47.8701859 134.433861,47.9704586 134.371951,48.0101499 L122.087503,56.0382327 C122.059171,56.0570339 122.023494,56.0570339 121.995162,56.0382327 L109.710713,48.0101499 C109.648803,47.9704586 109.648803,47.8701859 109.710713,47.8304946 L121.995162,39.8024118 C122.023494,39.7836106 122.059171,39.7836106 122.087503,39.8024118 L122.087503,39.8024118 Z M109.941565,47.9203222 L122.041332,55.8272423 L134.1411,47.9203222 L122.041332,40.0134022 L109.941565,47.9203222 Z" id="Fill-30"></path>
                                <path d="M134.270586,47.7412937 L146.553986,55.7693766 C146.616945,55.8101123 146.616945,55.9093405 146.553986,55.9490318 L134.270586,63.9771147 C134.242255,63.9969603 134.206578,63.9969603 134.178246,63.9771147 L121.893797,55.9490318 C121.831887,55.9093405 121.831887,55.8101123 121.893797,55.7693766 L134.178246,47.7412937 C134.206578,47.7224926 134.242255,47.7224926 134.270586,47.7412937 L134.270586,47.7412937 Z M122.124649,55.8592042 L134.224416,63.7661242 L146.323134,55.8592042 L134.224416,47.9522842 L122.124649,55.8592042 Z" id="Fill-32"></path>
                                <path d="M146.452621,55.6812201 L158.737069,63.7082585 C158.79898,63.7489943 158.79898,63.8482225 158.737069,63.8889583 L146.452621,71.9159966 C146.425338,71.9358422 146.388612,71.9358422 146.36028,71.9159966 L134.076881,63.8889583 C134.014971,63.8482225 134.014971,63.7489943 134.076881,63.7082585 L146.36028,55.6812201 C146.388612,55.6613745 146.425338,55.6613745 146.452621,55.6812201 L146.452621,55.6812201 Z M134.307733,63.7980861 L146.406451,71.7060506 L158.506218,63.7980861 L146.406451,55.8922106 L134.307733,63.7980861 Z" id="Fill-34"></path>
                                <path d="M61.1743923,15.9858704 L73.4577915,24.0129087 C73.5197017,24.0536445 73.5197017,24.1528727 73.4577915,24.1936085 L61.1743923,32.2216914 C61.1460605,32.2404925 61.1093341,32.2404925 61.0820517,32.2216914 L48.7976031,24.1936085 C48.7356929,24.1528727 48.7356929,24.0536445 48.7976031,24.0129087 L61.0820517,15.9858704 C61.1093341,15.9660247 61.1460605,15.9660247 61.1743923,15.9858704 L61.1743923,15.9858704 Z M49.0284546,24.1027364 L61.128222,32.0107009 L73.22694,24.1027364 L61.128222,16.1968609 L49.0284546,24.1027364 Z" id="Fill-36"></path>
                                <path d="M73.3564267,23.9247523 L85.6408753,31.9528352 C85.7027855,31.9925265 85.7027855,32.0927992 85.6408753,32.1324904 L73.3564267,40.1605733 C73.328095,40.1793744 73.2924179,40.1793744 73.2640861,40.1605733 L60.9796376,32.1324904 C60.9177274,32.0927992 60.9177274,31.9925265 60.9796376,31.9528352 L73.2640861,23.9247523 C73.2924179,23.9059512 73.328095,23.9059512 73.3564267,23.9247523 L73.3564267,23.9247523 Z M73.3102564,24.1357428 L61.2115384,32.0416183 L73.3102564,39.9495828 L85.4100238,32.0416183 L73.3102564,24.1357428 Z" id="Fill-38"></path>
                                <path d="M85.5395105,31.8635298 L97.8239591,39.8916127 C97.8858693,39.931304 97.8858693,40.0315766 97.8239591,40.0712679 L85.5395105,48.0993508 C85.5111787,48.1181519 85.4755017,48.1181519 85.4471699,48.0993508 L73.1627213,40.0712679 C73.1008112,40.0315766 73.1008112,39.931304 73.1627213,39.8916127 L85.4471699,31.8635298 C85.4755017,31.8447287 85.5111787,31.8447287 85.5395105,31.8635298 L85.5395105,31.8635298 Z M73.3935729,39.9803958 L85.4933402,47.8883603 L97.5931076,39.9803958 L85.4933402,32.0745203 L73.3935729,39.9803958 Z" id="Fill-40"></path>
                                <path d="M97.7224894,39.8024118 L110.005889,47.8304946 C110.067799,47.8701859 110.067799,47.9704586 110.005889,48.0101499 L97.7224894,56.0382327 C97.6941576,56.0570339 97.6574312,56.0570339 97.6301488,56.0382327 L85.3457002,48.0101499 C85.28379,47.9704586 85.28379,47.8701859 85.3457002,47.8304946 L97.6301488,39.8024118 C97.6574312,39.7836106 97.6941576,39.7836106 97.7224894,39.8024118 L97.7224894,39.8024118 Z M85.5765517,47.9203222 L97.6763191,55.8272423 L109.775037,47.9203222 L97.6763191,40.0134022 L85.5765517,47.9203222 Z" id="Fill-42"></path>
                                <path d="M109.904524,47.7412937 L122.188972,55.7693766 C122.250883,55.8101123 122.250883,55.9093405 122.188972,55.9490318 L109.904524,63.9771147 C109.876192,63.9969603 109.840515,63.9969603 109.812183,63.9771147 L97.528784,55.9490318 C97.4668738,55.9093405 97.4668738,55.8101123 97.528784,55.7693766 L109.812183,47.7412937 C109.840515,47.7224926 109.876192,47.7224926 109.904524,47.7412937 L109.904524,47.7412937 Z M97.7596355,55.8592042 L109.858354,63.7661242 L121.958121,55.8592042 L109.858354,47.9522842 L97.7596355,55.8592042 Z" id="Fill-44"></path>
                                <path d="M122.087503,55.6812201 L134.371951,63.7082585 C134.433861,63.7489943 134.433861,63.8482225 134.371951,63.8889583 L122.087503,71.9159966 C122.059171,71.9358422 122.023494,71.9358422 121.995162,71.9159966 L109.710713,63.8889583 C109.648803,63.8482225 109.648803,63.7489943 109.710713,63.7082585 L121.995162,55.6812201 C122.023494,55.6613745 122.059171,55.6613745 122.087503,55.6812201 L122.087503,55.6812201 Z M109.941565,63.7980861 L122.041332,71.7060506 L134.1411,63.7980861 L122.041332,55.8922106 L109.941565,63.7980861 Z" id="Fill-46"></path>
                                <path d="M134.270586,63.6201021 L146.553986,71.6471404 C146.616945,71.6878762 146.616945,71.7871044 146.553986,71.8278402 L134.270586,79.8559231 C134.242255,79.8747242 134.206578,79.8747242 134.178246,79.8559231 L121.893797,71.8278402 C121.831887,71.7871044 121.831887,71.6878762 121.893797,71.6471404 L134.178246,63.6201021 C134.206578,63.6002564 134.242255,63.6002564 134.270586,63.6201021 L134.270586,63.6201021 Z M122.124649,71.7369681 L134.224416,79.6449326 L146.323134,71.7369681 L134.224416,63.8310926 L122.124649,71.7369681 Z" id="Fill-48"></path>
                                <path d="M48.9914135,23.9247523 L61.275862,31.9528352 C61.3377722,31.9925265 61.3377722,32.0927992 61.275862,32.1324904 L48.9914135,40.1605733 C48.9630817,40.1793744 48.9274046,40.1793744 48.8990728,40.1605733 L36.6146243,32.1324904 C36.5527141,32.0927992 36.5527141,31.9925265 36.6146243,31.9528352 L48.8990728,23.9247523 C48.9274046,23.9059512 48.9630817,23.9059512 48.9914135,23.9247523 L48.9914135,23.9247523 Z M48.9452432,24.1357428 L36.8454758,32.0416183 L48.9452432,39.9495828 L61.0439612,32.0416183 L48.9452432,24.1357428 Z" id="Fill-50"></path>
                                <path d="M61.1743923,31.8635298 L73.4577915,39.8916127 C73.5197017,39.931304 73.5197017,40.0315766 73.4577915,40.0712679 L61.1743923,48.0993508 C61.1460605,48.1181519 61.1093341,48.1181519 61.0820517,48.0993508 L48.7976031,40.0712679 C48.7356929,40.0315766 48.7356929,39.931304 48.7976031,39.8916127 L61.0820517,31.8635298 C61.1093341,31.8447287 61.1460605,31.8447287 61.1743923,31.8635298 L61.1743923,31.8635298 Z M49.0284546,39.9803958 L61.128222,47.8883603 L73.22694,39.9803958 L61.128222,32.0745203 L49.0284546,39.9803958 Z" id="Fill-52"></path>
                                <path d="M73.3564267,39.8024118 L85.6408753,47.8304946 C85.7027855,47.8701859 85.7027855,47.9704586 85.6408753,48.0101499 L73.3564267,56.0382327 C73.328095,56.0570339 73.2924179,56.0570339 73.2640861,56.0382327 L60.9796376,48.0101499 C60.9177274,47.9704586 60.9177274,47.8701859 60.9796376,47.8304946 L73.2640861,39.8024118 C73.2924179,39.7836106 73.328095,39.7836106 73.3564267,39.8024118 L73.3564267,39.8024118 Z M61.2115384,47.9203222 L73.3102564,55.8272423 L85.4100238,47.9203222 L73.3102564,40.0134022 L61.2115384,47.9203222 Z" id="Fill-54"></path>
                                <path d="M85.5395105,47.7412937 L97.8239591,55.7693766 C97.8858693,55.8101123 97.8858693,55.9093405 97.8239591,55.9490318 L85.5395105,63.9771147 C85.5111787,63.9969603 85.4755017,63.9969603 85.4471699,63.9771147 L73.1627213,55.9490318 C73.1008112,55.9093405 73.1008112,55.8101123 73.1627213,55.7693766 L85.4471699,47.7412937 C85.4755017,47.7224926 85.5111787,47.7224926 85.5395105,47.7412937 L85.5395105,47.7412937 Z M73.3935729,55.8592042 L85.4933402,63.7661242 L97.5931076,55.8592042 L85.4933402,47.9522842 L73.3935729,55.8592042 Z" id="Fill-56"></path>
                                <path d="M97.7224894,55.6812201 L110.005889,63.7082585 C110.067799,63.7489943 110.067799,63.8482225 110.005889,63.8889583 L97.7224894,71.9159966 C97.6941576,71.9358422 97.6574312,71.9358422 97.6301488,71.9159966 L85.3457002,63.8889583 C85.28379,63.8482225 85.28379,63.7489943 85.3457002,63.7082585 L97.6301488,55.6812201 C97.6574312,55.6613745 97.6941576,55.6613745 97.7224894,55.6812201 L97.7224894,55.6812201 Z M85.5765517,63.7980861 L97.6763191,71.7060506 L109.775037,63.7980861 L97.6763191,55.8922106 L85.5765517,63.7980861 Z" id="Fill-58"></path>
                                <path d="M109.904524,63.6201021 L122.188972,71.6471404 C122.250883,71.6878762 122.250883,71.7871044 122.188972,71.8278402 L109.904524,79.8559231 C109.876192,79.8747242 109.840515,79.8747242 109.812183,79.8559231 L97.528784,71.8278402 C97.4668738,71.7871044 97.4668738,71.6878762 97.528784,71.6471404 L109.812183,63.6201021 C109.840515,63.6002564 109.876192,63.6002564 109.904524,63.6201021 L109.904524,63.6201021 Z M97.7596355,71.7369681 L109.858354,79.6449326 L121.958121,71.7369681 L109.858354,63.8310926 L97.7596355,71.7369681 Z" id="Fill-60"></path>
                                <path d="M122.087503,71.558984 L134.371951,79.5870669 C134.433861,79.6267582 134.433861,79.7270309 134.371951,79.7667221 L122.087503,87.794805 C122.059171,87.8136061 122.023494,87.8136061 121.995162,87.794805 L109.710713,79.7667221 C109.648803,79.7270309 109.648803,79.6267582 109.710713,79.5870669 L121.995162,71.558984 C122.023494,71.5401829 122.059171,71.5401829 122.087503,71.558984 L122.087503,71.558984 Z M109.941565,79.67585 L122.041332,87.5838145 L134.1411,79.67585 L122.041332,71.7699745 L109.941565,79.67585 Z" id="Fill-62"></path>
                                <path d="M36.8083297,31.8635298 L49.0927783,39.8916127 C49.1546884,39.931304 49.1546884,40.0315766 49.0927783,40.0712679 L36.8083297,48.0993508 C36.7799979,48.1181519 36.7443209,48.1181519 36.7159891,48.0993508 L24.4315405,40.0712679 C24.3696303,40.0315766 24.3696303,39.931304 24.4315405,39.8916127 L36.7159891,31.8635298 C36.7443209,31.8447287 36.7799979,31.8447287 36.8083297,31.8635298 L36.8083297,31.8635298 Z M24.6634413,39.9803958 L36.7621594,47.8883603 L48.8619267,39.9803958 L36.7621594,32.0745203 L24.6634413,39.9803958 Z" id="Fill-64"></path>
                                <path d="M48.9914135,39.8024118 L61.275862,47.8304946 C61.3377722,47.8701859 61.3377722,47.9704586 61.275862,48.0101499 L48.9914135,56.0382327 C48.9630817,56.0570339 48.9274046,56.0570339 48.8990728,56.0382327 L36.6146243,48.0101499 C36.5527141,47.9704586 36.5527141,47.8701859 36.6146243,47.8304946 L48.8990728,39.8024118 C48.9274046,39.7836106 48.9630817,39.7836106 48.9914135,39.8024118 L48.9914135,39.8024118 Z M36.8454758,47.9203222 L48.9452432,55.8272423 L61.0439612,47.9203222 L48.9452432,40.0134022 L36.8454758,47.9203222 Z" id="Fill-66"></path>
                                <path d="M61.1743923,47.7412937 L73.4577915,55.7693766 C73.5197017,55.8101123 73.5197017,55.9093405 73.4577915,55.9490318 L61.1743923,63.9771147 C61.1460605,63.9969603 61.1093341,63.9969603 61.0820517,63.9771147 L48.7976031,55.9490318 C48.7356929,55.9093405 48.7356929,55.8101123 48.7976031,55.7693766 L61.0820517,47.7412937 C61.1093341,47.7224926 61.1460605,47.7224926 61.1743923,47.7412937 L61.1743923,47.7412937 Z M49.0284546,55.8592042 L61.128222,63.7661242 L73.22694,55.8592042 L61.128222,47.9522842 L49.0284546,55.8592042 Z" id="Fill-68"></path>
                                <path d="M73.3564267,55.6812201 L85.6408753,63.7082585 C85.7027855,63.7489943 85.7027855,63.8482225 85.6408753,63.8889583 L73.3564267,71.9159966 C73.328095,71.9358422 73.2924179,71.9358422 73.2640861,71.9159966 L60.9796376,63.8889583 C60.9177274,63.8482225 60.9177274,63.7489943 60.9796376,63.7082585 L73.2640861,55.6812201 C73.2924179,55.6613745 73.328095,55.6613745 73.3564267,55.6812201 L73.3564267,55.6812201 Z M61.2115384,63.7980861 L73.3102564,71.7060506 L85.4100238,63.7980861 L73.3102564,55.8922106 L61.2115384,63.7980861 Z" id="Fill-70"></path>
                                <path d="M85.5395105,63.6201021 L97.8239591,71.6471404 C97.8858693,71.6878762 97.8858693,71.7871044 97.8239591,71.8278402 L85.5395105,79.8559231 C85.5111787,79.8747242 85.4755017,79.8747242 85.4471699,79.8559231 L73.1627213,71.8278402 C73.1008112,71.7871044 73.1008112,71.6878762 73.1627213,71.6471404 L85.4471699,63.6201021 C85.4755017,63.6002564 85.5111787,63.6002564 85.5395105,63.6201021 L85.5395105,63.6201021 Z M73.3935729,71.7369681 L85.4933402,79.6449326 L97.5931076,71.7369681 L85.4933402,63.8310926 L73.3935729,71.7369681 Z" id="Fill-72"></path>
                                <path d="M97.7224894,71.558984 L110.005889,79.5870669 C110.067799,79.6267582 110.067799,79.7270309 110.005889,79.7667221 L97.7224894,87.794805 C97.6941576,87.8136061 97.6574312,87.8136061 97.6301488,87.794805 L85.3457002,79.7667221 C85.28379,79.7270309 85.28379,79.6267582 85.3457002,79.5870669 L97.6301488,71.558984 C97.6574312,71.5401829 97.6941576,71.5401829 97.7224894,71.558984 L97.7224894,71.558984 Z M85.5765517,79.67585 L97.6763191,87.5838145 L109.775037,79.67585 L97.6763191,71.7699745 L85.5765517,79.67585 Z" id="Fill-74"></path>
                                <path d="M109.904524,79.4977615 L122.188972,87.5258444 C122.250883,87.5655357 122.250883,87.6658083 122.188972,87.7054996 L109.904524,95.7335825 C109.876192,95.7523836 109.840515,95.7523836 109.812183,95.7335825 L97.528784,87.7054996 C97.4668738,87.6658083 97.4668738,87.5655357 97.528784,87.5258444 L109.812183,79.4977615 C109.840515,79.4789604 109.876192,79.4789604 109.904524,79.4977615 L109.904524,79.4977615 Z M97.7596355,87.6146275 L109.858354,95.522592 L121.958121,87.6146275 L109.858354,79.708752 L97.7596355,87.6146275 Z" id="Fill-76"></path>
                                <path d="M24.6264002,39.8024118 L36.9097994,47.8304946 C36.9717096,47.8701859 36.9717096,47.9704586 36.9097994,48.0101499 L24.6264002,56.0382327 C24.5980684,56.0570339 24.561342,56.0570339 24.5330102,56.0382327 L12.249611,48.0101499 C12.1877008,47.9704586 12.1877008,47.8701859 12.249611,47.8304946 L24.5330102,39.8024118 C24.561342,39.7836106 24.5980684,39.7836106 24.6264002,39.8024118 L24.6264002,39.8024118 Z M12.4804625,47.9203222 L24.5791805,55.8272423 L36.6789479,47.9203222 L24.5791805,40.0134022 L12.4804625,47.9203222 Z" id="Fill-78"></path>
                                <path d="M36.8083297,47.7412937 L49.0927783,55.7693766 C49.1546884,55.8101123 49.1546884,55.9093405 49.0927783,55.9490318 L36.8083297,63.9771147 C36.7799979,63.9969603 36.7443209,63.9969603 36.7159891,63.9771147 L24.4315405,55.9490318 C24.3696303,55.9093405 24.3696303,55.8101123 24.4315405,55.7693766 L36.7159891,47.7412937 C36.7443209,47.7224926 36.7799979,47.7224926 36.8083297,47.7412937 L36.8083297,47.7412937 Z M24.6634413,55.8592042 L36.7621594,63.7661242 L48.8619267,55.8592042 L36.7621594,47.9522842 L24.6634413,55.8592042 Z" id="Fill-80"></path>
                                <path d="M48.9914135,55.6812201 L61.275862,63.7082585 C61.3377722,63.7489943 61.3377722,63.8482225 61.275862,63.8889583 L48.9914135,71.9159966 C48.9630817,71.9358422 48.9274046,71.9358422 48.8990728,71.9159966 L36.6146243,63.8889583 C36.5527141,63.8482225 36.5527141,63.7489943 36.6146243,63.7082585 L48.8990728,55.6812201 C48.9274046,55.6613745 48.9630817,55.6613745 48.9914135,55.6812201 L48.9914135,55.6812201 Z M36.8454758,63.7980861 L48.9452432,71.7060506 L61.0439612,63.7980861 L48.9452432,55.8922106 L36.8454758,63.7980861 Z" id="Fill-82"></path>
                                <path d="M61.1743923,63.6201021 L73.4577915,71.6471404 C73.5197017,71.6878762 73.5197017,71.7871044 73.4577915,71.8278402 L61.1743923,79.8559231 C61.1460605,79.8747242 61.1093341,79.8747242 61.0820517,79.8559231 L48.7976031,71.8278402 C48.7356929,71.7871044 48.7356929,71.6878762 48.7976031,71.6471404 L61.0820517,63.6201021 C61.1093341,63.6002564 61.1460605,63.6002564 61.1743923,63.6201021 L61.1743923,63.6201021 Z M49.0284546,71.7369681 L61.128222,79.6449326 L73.22694,71.7369681 L61.128222,63.8310926 L49.0284546,71.7369681 Z" id="Fill-84"></path>
                                <path d="M73.3564267,71.558984 L85.6408753,79.5870669 C85.7027855,79.6267582 85.7027855,79.7270309 85.6408753,79.7667221 L73.3564267,87.794805 C73.328095,87.8136061 73.2924179,87.8136061 73.2640861,87.794805 L60.9796376,79.7667221 C60.9177274,79.7270309 60.9177274,79.6267582 60.9796376,79.5870669 L73.2640861,71.558984 C73.2924179,71.5401829 73.328095,71.5401829 73.3564267,71.558984 L73.3564267,71.558984 Z M61.2115384,79.67585 L73.3102564,87.5838145 L85.4100238,79.67585 L73.3102564,71.7699745 L61.2115384,79.67585 Z" id="Fill-86"></path>
                                <path d="M85.5395105,79.4977615 L97.8239591,87.5258444 C97.8858693,87.5655357 97.8858693,87.6658083 97.8239591,87.7054996 L85.5395105,95.7335825 C85.5111787,95.7523836 85.4755017,95.7523836 85.4471699,95.7335825 L73.1627213,87.7054996 C73.1008112,87.6658083 73.1008112,87.5655357 73.1627213,87.5258444 L85.4471699,79.4977615 C85.4755017,79.4789604 85.5111787,79.4789604 85.5395105,79.4977615 L85.5395105,79.4977615 Z M73.3935729,87.6146275 L85.4933402,95.522592 L97.5931076,87.6146275 L85.4933402,79.708752 L73.3935729,87.6146275 Z" id="Fill-88"></path>
                                <path d="M97.7224894,87.4366435 L110.005889,95.4647263 C110.067799,95.5044176 110.067799,95.6046903 110.005889,95.6443816 L97.7224894,103.672464 C97.6941576,103.691266 97.6574312,103.691266 97.6301488,103.672464 L85.3457002,95.6443816 C85.28379,95.6046903 85.28379,95.5044176 85.3457002,95.4647263 L97.6301488,87.4366435 C97.6574312,87.4178423 97.6941576,87.4178423 97.7224894,87.4366435 L97.7224894,87.4366435 Z M85.5765517,95.5545539 L97.6763191,103.461474 L109.775037,95.5545539 L97.6763191,87.6476339 L85.5765517,95.5545539 Z" id="Fill-90"></path>
                                <path d="M12.4433164,47.7412937 L24.727765,55.7693766 C24.7896751,55.8101123 24.7896751,55.9093405 24.727765,55.9490318 L12.4433164,63.9771147 C12.4149846,63.9969603 12.3793076,63.9969603 12.3509758,63.9771147 L0.0665272093,55.9490318 C0.0046170303,55.9093405 0.0046170303,55.8101123 0.0665272093,55.7693766 L12.3509758,47.7412937 C12.3793076,47.7224926 12.4149846,47.7224926 12.4433164,47.7412937 L12.4433164,47.7412937 Z M12.3971461,47.9522842 L0.297378724,55.8592042 L12.3971461,63.7661242 L24.4958641,55.8592042 L12.3971461,47.9522842 Z" id="Fill-92"></path>
                                <path d="M24.6264002,55.6812201 L36.9097994,63.7082585 C36.9717096,63.7489943 36.9717096,63.8482225 36.9097994,63.8889583 L24.6264002,71.9159966 C24.5980684,71.9358422 24.561342,71.9358422 24.5330102,71.9159966 L12.249611,63.8889583 C12.1877008,63.8482225 12.1877008,63.7489943 12.249611,63.7082585 L24.5330102,55.6812201 C24.561342,55.6613745 24.5980684,55.6613745 24.6264002,55.6812201 L24.6264002,55.6812201 Z M12.4804625,63.7980861 L24.5791805,71.7060506 L36.6789479,63.7980861 L24.5791805,55.8922106 L12.4804625,63.7980861 Z" id="Fill-94"></path>
                                <path d="M36.8083297,63.6201021 L49.0927783,71.6471404 C49.1546884,71.6878762 49.1546884,71.7871044 49.0927783,71.8278402 L36.8083297,79.8559231 C36.7799979,79.8747242 36.7443209,79.8747242 36.7159891,79.8559231 L24.4315405,71.8278402 C24.3696303,71.7871044 24.3696303,71.6878762 24.4315405,71.6471404 L36.7159891,63.6201021 C36.7443209,63.6002564 36.7799979,63.6002564 36.8083297,63.6201021 L36.8083297,63.6201021 Z M24.6634413,71.7369681 L36.7621594,79.6449326 L48.8619267,71.7369681 L36.7621594,63.8310926 L24.6634413,71.7369681 Z" id="Fill-96"></path>
                                <path d="M48.9914135,71.558984 L61.275862,79.5870669 C61.3377722,79.6267582 61.3377722,79.7270309 61.275862,79.7667221 L48.9914135,87.794805 C48.9630817,87.8136061 48.9274046,87.8136061 48.8990728,87.794805 L36.6146243,79.7667221 C36.5527141,79.7270309 36.5527141,79.6267582 36.6146243,79.5870669 L48.8990728,71.558984 C48.9274046,71.5401829 48.9630817,71.5401829 48.9914135,71.558984 L48.9914135,71.558984 Z M36.8454758,79.67585 L48.9452432,87.5838145 L61.0439612,79.67585 L48.9452432,71.7699745 L36.8454758,79.67585 Z" id="Fill-98"></path>
                                <path d="M61.1743923,79.4977615 L73.4577915,87.5258444 C73.5197017,87.5655357 73.5197017,87.6658083 73.4577915,87.7054996 L61.1743923,95.7335825 C61.1460605,95.7523836 61.1093341,95.7523836 61.0820517,95.7335825 L48.7976031,87.7054996 C48.7356929,87.6658083 48.7356929,87.5655357 48.7976031,87.5258444 L61.0820517,79.4977615 C61.1093341,79.4789604 61.1460605,79.4789604 61.1743923,79.4977615 L61.1743923,79.4977615 Z M49.0284546,87.6146275 L61.128222,95.522592 L73.22694,87.6146275 L61.128222,79.708752 L49.0284546,87.6146275 Z" id="Fill-100"></path>
                                <path d="M73.3564267,87.4366435 L85.6408753,95.4647263 C85.7027855,95.5044176 85.7027855,95.6046903 85.6408753,95.6443816 L73.3564267,103.672464 C73.328095,103.691266 73.2924179,103.691266 73.2640861,103.672464 L60.9796376,95.6443816 C60.9177274,95.6046903 60.9177274,95.5044176 60.9796376,95.4647263 L73.2640861,87.4366435 C73.2924179,87.4178423 73.328095,87.4178423 73.3564267,87.4366435 L73.3564267,87.4366435 Z M61.2115384,95.5545539 L73.3102564,103.461474 L85.4100238,95.5545539 L73.3102564,87.6476339 L61.2115384,95.5545539 Z" id="Fill-102"></path>
                                <path d="M85.5395105,95.3755254 L97.8239591,103.403608 C97.8858693,103.4433 97.8858693,103.543572 97.8239591,103.583264 L85.5395105,111.611346 C85.5111787,111.630147 85.4755017,111.630147 85.4471699,111.611346 L73.1627213,103.583264 C73.1008112,103.543572 73.1008112,103.4433 73.1627213,103.403608 L85.4471699,95.3755254 C85.4755017,95.3567243 85.5111787,95.3567243 85.5395105,95.3755254 L85.5395105,95.3755254 Z M73.3935729,103.493436 L85.4933402,111.400356 L97.5931076,103.493436 L85.4933402,95.5865159 L73.3935729,103.493436 Z" id="Fill-104"></path>
                            </g>
                            <polygon id="模块阴影" fill="url(#linearGradient-12)" opacity="0.5" points="70.0528344 55.9003133 85.956378 66.2499757 101.731812 55.944347 85.9834111 45.5579342"></polygon>
                        </g>
                        <g id="操作台" transform="translate(3.000000, 72.109576)">
                            <g id="Laboratorium_monitor">
                                <polygon id="Base" fill="url(#linearGradient-13)" points="0.149832324 46.8695144 0.149832324 28.0340353 55.3662079 24.2036618 34.2533198 69.0214149"></polygon>
                                <polygon id="Base" fill="url(#linearGradient-14)" points="22.6258184 0.284063985 0.144018635 28.0386968 0.178985596 28.1399536 34.1955566 50.2696533 56.8575439 22.5898438"></polygon>
                                <g id="Screen" transform="translate(9.901773, 5.559930)" fill="#E9F1FD">
                                    <polygon id="Rectangle" points="13.5894939 0.0988468013 0.315454706 17.3103652 27.6820602 34.9640109 40.9560994 17.8086326"></polygon>
                                </g>
                                <g id="Button" transform="translate(27.563557, 38.919510)">
                                    <path d="M0.446724992,0.859256475 C0.050565639,1.32506146 0.107024577,2.02382161 0.572829559,2.41998097 C0.60089441,2.44384965 0.630133126,2.46630267 0.660436579,2.48725621 L0.673636616,2.49638347 C1.24419353,2.89089912 2.02075764,2.7895685 2.47097685,2.26185602 C2.86729541,1.79732175 2.81199565,1.09946264 2.34746138,0.703144085 C2.31958525,0.679361498 2.29054406,0.656979416 2.26044532,0.636080709 L2.24453459,0.625033278 C1.67422906,0.229048278 0.896535679,0.330368145 0.446724992,0.859256475 Z" id="Rectangle" fill="#98ABC0"></path>
                                    <path d="M0.446724992,0.559815273 C0.050565639,1.02562026 0.107024577,1.72438041 0.572829559,2.12053977 C0.60089441,2.14440845 0.630133126,2.16686147 0.660436579,2.18781501 L0.673636616,2.19694227 C1.24419353,2.59145792 2.02075764,2.4901273 2.47097685,1.96241482 C2.86729541,1.49788055 2.81199565,0.800021443 2.34746138,0.403702883 C2.31958525,0.379920296 2.29054406,0.357538214 2.26044532,0.336639507 L2.24453459,0.325592076 C1.67422906,-0.0703929238 0.896535679,0.0309269434 0.446724992,0.559815273 Z" id="Rectangle" fill="#B6C5D5"></path>
                                </g>
                                <g id="Button" transform="translate(32.180763, 41.723899)">
                                    <path d="M0.357135377,0.967693969 C-0.0390239764,1.43349895 0.0174349612,2.13225911 0.483239944,2.52841846 C0.511304795,2.55228715 0.54054351,2.57474016 0.570846963,2.5956937 L0.584047001,2.60482096 C1.15460392,2.99933662 1.93116803,2.898006 2.38138723,2.37029351 C2.77770579,1.90575924 2.72240603,1.20790014 2.25787176,0.811581579 C2.22999564,0.787798992 2.20095444,0.76541691 2.1708557,0.744518203 L2.15494497,0.733470772 C1.58463944,0.337485772 0.806946063,0.438805639 0.357135377,0.967693969 Z" id="Rectangle" fill="#98ABC0"></path>
                                    <path d="M0.357135377,0.668252767 C-0.0390239764,1.13405775 0.0174349612,1.83281791 0.483239944,2.22897726 C0.511304795,2.25284595 0.54054351,2.27529896 0.570846963,2.2962525 L0.584047001,2.30537976 C1.15460392,2.69989541 1.93116803,2.5985648 2.38138723,2.07085231 C2.77770579,1.60631804 2.72240603,0.908458937 2.25787176,0.512140377 C2.22999564,0.48835779 2.20095444,0.465975708 2.1708557,0.445077001 L2.15494497,0.43402957 C1.58463944,0.03804457 0.806946063,0.139364437 0.357135377,0.668252767 Z" id="Rectangle" fill="#B6C5D5"></path>
                                </g>
                                <polygon id="Base" fill="url(#linearGradient-15)" points="0.149832324 46.8695144 0.149832324 28.0340353 34.2533198 50.1157142 34.2533198 69.0214149"></polygon>
                                <polygon id="Base" fill="url(#linearGradient-16)" points="56.7237552 54.4658092 56.7237552 22.4377007 34.2533198 50.1157142 34.2533198 69.0234207"></polygon>
                            </g>
                            <path d="M17.3433924,18.7370516 L39.4746157,33.2336719 L37.4805885,35.7988664 L15.3493652,21.3022461 L17.3433924,18.7370516 Z M30.9223633,21.5048828 L42.7229745,29.2243334 L40.885376,31.4829102 L29.0847647,23.7634595 L30.9223633,21.5048828 Z" id="形状结合" fill="url(#linearGradient-17)" opacity="0.5"></path>
                        </g>
                    </g>
                </g>
                <g id="小象" transform="translate(104.379545, 250.000000)">
                    <path d="M34.2009007,6.74504151 C38.3076715,10.0186418 40.7467992,14.5865783 41.5182835,20.448851 C40.2365452,19.4969787 39.4729751,19.0337378 39.2275731,19.0591284 C36.7696873,12.3450171 35.0523005,8.52360596 34.0754124,7.59489502 C33.0985244,6.66618408 33.1403538,6.38289958 34.2009007,6.74504151 Z" id="路径-13" fill="#B6C5D5"></path>
                    <g id="路径-5" transform="translate(0.293950, 1.902874)">
                        <mask id="mask-20" fill="white">
                            <use xlink:href="#path-19"></use>
                        </mask>
                        <use id="蒙版" fill="url(#linearGradient-18)" xlink:href="#path-19"></use>
                        <path d="M0.144072358,26.5623213 C-0.156342681,27.3650557 0.0246265571,28.6108443 0.579069916,29.9217574 C1.26315195,32.0321089 3.62130624,35.6529585 7.04147226,37.5299116 C10.4616383,39.4068648 20.5102223,44.4901167 30.1906422,39.0958296 C31.64865,38.1912886 31.9615162,39.0494429 32.2294605,39.4925581 C32.6645191,40.2789351 33.0467213,41.1752974 34.2021168,40.6314741 C34.9723805,40.2689253 36.3390887,39.9331351 38.3022415,39.6241035 C38.8053418,33.8673893 39.0697665,30.5006698 39.0955154,29.5239448 C37.8112136,30.437336 28.897002,36.5748946 25.0922535,37.4920699 C23.6701344,37.8038374 7.47268564,39.8964278 0.144072358,26.5623213 Z" fill="url(#linearGradient-21)" mask="url(#mask-20)"></path>
                    </g>
                    <g id="椭圆形">
                        <use fill="url(#linearGradient-22)" fill-rule="evenodd" xlink:href="#path-23"></use>
                        <use fill="black" fill-opacity="1" filter="url(#filter-24)" xlink:href="#path-23"></use>
                    </g>
                    <path d="M34.7330052,5.5596167 C34.2548965,6.57328858 34.0356989,7.25171468 34.0754124,7.59489502 C34.1349827,8.10966553 33.786472,6.89213623 32.3484837,7.25688233 C31.2593724,7.51786865 23.3859593,11.2661597 13.5291478,19.8976294 C11.8693171,19.9799862 10.5684748,19.711228 9.62662093,19.091355 L33.331516,4.48453297 L34.7330052,5.5596167 Z" id="路径-10" fill="url(#linearGradient-25)"></path>
                    <path d="M23.7009007,0.374436037 C14.2349176,4.36043864 9.05094324,9.74805257 8.1489775,16.5372778 C8.39904708,17.4384416 8.87920475,18.2795467 9.58945052,19.0605933 C10.7954238,19.5669816 12.0090062,19.7624162 13.2301976,19.646897 C14.4748265,19.3979956 25.9179417,7.41923584 34.7330052,5.5596167 C32.3100723,2.35169027 28.6327041,0.623296714 23.7009007,0.374436037 Z" id="路径-9" fill="url(#linearGradient-26)"></path>
                </g>
                <path d="M115.192995,254.597092 C114.314821,254.090023 111.973513,253.335364 108.653932,249.501995 C105.334352,245.668625 95.3917255,243.166291 93.7779559,251.993264 C92.1641864,260.820237 95.6402606,269.944504 100.823854,270.448824 C102.892051,270.395977 104.463218,269.971563 105.537355,269.175583 C107.507814,262.263237 110.726361,257.40374 115.192995,254.597092 Z" id="小象-左耳朵" fill="url(#linearGradient-27)"></path>
                <path d="M137.024843,266.75145 C137.960695,267.110215 138.089418,267.123704 141.394167,268.092209 C145.461306,269.323655 151.795656,273.404221 148.002443,281.18071 C144.20923,288.9572 138.736574,295.741135 134.839235,288.499924 C133.814984,286.797939 132.960085,285.520798 132.274538,284.668503 C130.059165,275.241786 131.6426,269.269435 137.024843,266.75145 Z" id="小象-右耳朵" fill="url(#linearGradient-28)"></path>
                <g id="小象-疑问" transform="translate(78.379545, 206.000000)">
                    <path d="M16.5,1.77635684e-14 C25.6126984,1.77635684e-14 33,7.38730163 33,16.5 C33,20.8935697 31.2827762,24.8860604 28.4828909,27.8429098 L29,36.4641016 L22.2133351,31.9840492 C20.4331189,32.6411431 18.5084672,33 16.5,33 C7.38730163,33 0,25.6126984 0,16.5 C0,7.38730163 7.38730163,1.77635684e-14 16.5,1.77635684e-14 Z" id="形状结合" fill="url(#linearGradient-29)"></path>
                    <path d="M17.264,7.528 C15.488,7.528 14.096,8.032 13.064,9.04 C12.008,10.048 11.504,11.44 11.504,13.216 L14.24,13.216 C14.24,12.208 14.432,11.416 14.84,10.864 C15.296,10.192 16.04,9.88 17.096,9.88 C17.912,9.88 18.56,10.096 19.016,10.552 C19.448,11.008 19.688,11.632 19.688,12.424 C19.688,13.024 19.472,13.6 19.04,14.128 L18.752,14.464 C17.192,15.856 16.256,16.864 15.944,17.512 C15.608,18.16 15.464,18.952 15.464,19.864 L15.464,20.2 L18.224,20.2 L18.224,19.864 C18.224,19.288 18.344,18.784 18.584,18.304 C18.7691429,17.9337143 19.0248163,17.5810612 19.3661341,17.2611545 L20.322125,16.41625 C21.014,15.7975 21.446,15.388 21.608,15.208 C22.184,14.44 22.496,13.456 22.496,12.256 C22.496,10.792 22.016,9.64 21.056,8.8 C20.096,7.936 18.824,7.528 17.264,7.528 Z M16.832,21.376 C17.36,21.376 17.816,21.544 18.176,21.88 C18.512,22.216 18.704,22.648 18.704,23.176 C18.704,23.704 18.512,24.16 18.152,24.496 C17.792,24.832 17.36,25 16.832,25 C16.304,25 15.872,24.808 15.512,24.472 C15.152,24.136 14.984,23.704 14.984,23.176 C14.984,22.648 15.152,22.216 15.512,21.88 C15.872,21.544 16.304,21.376 16.832,21.376 Z" id="？" fill="#B5C2D1" fill-rule="nonzero"></path>
                </g>
            </g>
        </g>
    </g>
</svg>