<?xml version="1.0" encoding="UTF-8"?>
<svg width="358px" height="295px" viewBox="0 0 358 295" version="1.1" xmlns="http://www.w3.org/2000/svg" xmlns:xlink="http://www.w3.org/1999/xlink">
    <!-- Generator: Sketch 55.2 (78181) - https://sketchapp.com -->
    <title>编组 4</title>
    <desc>Created with Sketch.</desc>
    <defs>
        <polygon id="path-1" points="4.54747351e-13 42.7874695 65.1353655 0.416218449 130.270731 42.7874695 65.1353655 85.1587205"></polygon>
        <linearGradient x1="50%" y1="-13.438398%" x2="50%" y2="86.7344648%" id="linearGradient-3">
            <stop stop-color="#D7E0EA" offset="0%"></stop>
            <stop stop-color="#B6C5D5" offset="100%"></stop>
        </linearGradient>
        <linearGradient x1="47.724513%" y1="14.5585592%" x2="47.724513%" y2="91.0951327%" id="linearGradient-4">
            <stop stop-color="#D7E0EA" offset="0%"></stop>
            <stop stop-color="#B6C5D5" offset="100%"></stop>
        </linearGradient>
        <linearGradient x1="50%" y1="0%" x2="50%" y2="95.2431127%" id="linearGradient-5">
            <stop stop-color="#D7E0EA" offset="0%"></stop>
            <stop stop-color="#B6C5D5" offset="100%"></stop>
        </linearGradient>
        <linearGradient x1="0%" y1="50%" x2="100%" y2="50%" id="linearGradient-6">
            <stop stop-color="#D7E0EA" offset="0%"></stop>
            <stop stop-color="#A9B9CB" offset="100%"></stop>
        </linearGradient>
        <linearGradient x1="0%" y1="50%" x2="100%" y2="50%" id="linearGradient-7">
            <stop stop-color="#F2F6FA" offset="0%"></stop>
            <stop stop-color="#DFE7EF" offset="100%"></stop>
        </linearGradient>
        <linearGradient x1="5.52236408%" y1="50%" x2="105.000815%" y2="50%" id="linearGradient-8">
            <stop stop-color="#CBD8E6" offset="0%"></stop>
            <stop stop-color="#A5B6C8" offset="100%"></stop>
        </linearGradient>
        <linearGradient x1="100%" y1="74.030842%" x2="0%" y2="21.2069255%" id="linearGradient-9">
            <stop stop-color="#E8F0F8" offset="0%"></stop>
            <stop stop-color="#D8E2ED" offset="100%"></stop>
        </linearGradient>
        <linearGradient x1="0%" y1="40.7764668%" x2="100%" y2="50%" id="linearGradient-10">
            <stop stop-color="#E8F0F8" offset="0%"></stop>
            <stop stop-color="#D8E2ED" offset="100%"></stop>
        </linearGradient>
        <linearGradient x1="47.3844831%" y1="7.74507204%" x2="47.3844831%" y2="102.227654%" id="linearGradient-11">
            <stop stop-color="#B3D2F5" stop-opacity="0" offset="0%"></stop>
            <stop stop-color="#B3D2F5" offset="100%"></stop>
        </linearGradient>
        <linearGradient x1="29.865094%" y1="0%" x2="50%" y2="110.375083%" id="linearGradient-12">
            <stop stop-color="#CBD8E6" offset="0%"></stop>
            <stop stop-color="#B5C5D5" offset="36.895587%"></stop>
            <stop stop-color="#A5B6C8" offset="46.8274916%"></stop>
            <stop stop-color="#CAD8E6" offset="100%"></stop>
        </linearGradient>
        <linearGradient x1="55.7296715%" y1="100%" x2="31.2482262%" y2="0%" id="linearGradient-13">
            <stop stop-color="#E8F0F8" offset="0%"></stop>
            <stop stop-color="#D8E2ED" offset="100%"></stop>
        </linearGradient>
        <linearGradient x1="30.7971084%" y1="37.5021343%" x2="166.0546%" y2="25.4155747%" id="linearGradient-14">
            <stop stop-color="#CBD8E6" offset="0%"></stop>
            <stop stop-color="#A5B6C8" offset="100%"></stop>
        </linearGradient>
        <radialGradient cx="50%" cy="50%" fx="50%" fy="50%" r="99.2604962%" gradientTransform="translate(0.500000,0.500000),scale(1.000000,0.645833),rotate(90.000000),translate(-0.500000,-0.500000)" id="radialGradient-15">
            <stop stop-color="#F7FBFF" offset="0%"></stop>
            <stop stop-color="#E2E9F1" offset="100%"></stop>
        </radialGradient>
        <linearGradient x1="50%" y1="147.243071%" x2="43.072601%" y2="0%" id="linearGradient-16">
            <stop stop-color="#DDE8F1" offset="0%"></stop>
            <stop stop-color="#B9CCDF" offset="100%"></stop>
        </linearGradient>
    </defs>
    <g id="页面-1" stroke="none" stroke-width="1" fill="none" fill-rule="evenodd">
        <g id="用户未加入项目" transform="translate(-541.000000, -104.000000)">
            <g id="编组-4" transform="translate(543.000000, 104.000000)">
                <g id="波纹" transform="translate(0.000000, 82.000000)">
                    <g id="编组" transform="translate(112.636364, 80.534091)">
                        <mask id="mask-2" fill="white">
                            <use xlink:href="#path-1"></use>
                        </mask>
                        <g id="Clip-2"></g>
                    </g>
                    <polygon id="Stroke-3" stroke="url(#linearGradient-3)" stroke-width="1.53" opacity="0.200000003" points="58.484375 104.75226 177.447544 170.769231 292.484375 104.75226 178.398522 38.7692308"></polygon>
                    <polygon id="Stroke-3" stroke="url(#linearGradient-4)" stroke-width="1.53" opacity="0.149999991" points="28.484375 105.753053 177.36733 190.769231 322.484375 105.753053 178.279452 20.7692308"></polygon>
                    <polygon id="Stroke-3" stroke="url(#linearGradient-5)" stroke-width="1.53" opacity="0.100000001" points="7.86037901e-14 105.78279 178.79188 211.59644 354 105.78279 179.659884 0"></polygon>
                </g>
                <g id="编组-2" transform="translate(81.000000, 113.000000)" fill-rule="nonzero">
                    <g id="编组" transform="translate(0.000000, 0.600000)">
                        <polygon id="路径" fill="url(#linearGradient-6)" points="95.3082898 5.33846154 190.569828 58.9269479 190.569828 70.2341439 95.3082898 124.969231 0.0467513069 70.2341439 0.0467513069 58.9269479"></polygon>
                        <polygon id="路径" fill="url(#linearGradient-7)" points="95 5.33846154 191 58.5076923 95.3157795 111.676923 0.0467513069 58.8981432"></polygon>
                        <polygon id="路径备份" fill="url(#linearGradient-8)" opacity="0.652026" points="95.0861878 14.2 175.277222 58.5076923 95.3499657 102.815385 15.7695295 58.8330681"></polygon>
                        <path d="M33.9693509,23.1866092 L38.9693509,26.8348504 L38.9693509,19.538368 L33.9693509,15.8348504 L33.9693509,23.1866092 Z M42.6093329,21.4340209 L42.6093329,28.7673543 L47.6093329,32.4340209 L47.6093329,25.1006876 L42.6093329,21.4340209 Z M50.7798434,26.1502439 L50.7798434,33.4835772 L55.7798434,37.1502439 L55.7798434,29.8169105 L50.7798434,26.1502439 Z M72.21507,39.9521818 L72.7399802,48.1865716 L98.0595632,64.470053 L98.0140772,56.4910383 L72.21507,39.9521818 Z" id="形状" fill="url(#linearGradient-9)" transform="translate(66.014457, 40.152452) rotate(118.000000) translate(-66.014457, -40.152452) "></path>
                    </g>
                    <path d="M89.3552428,62.8243637 C84.1980661,61.4616221 80.5260528,58.5201215 80.0517647,55.3717255 C79.5774766,52.2233295 82.3943374,49.4881991 87.1886133,48.4419505 C91.9828891,47.3957018 97.810219,48.2444217 101.95284,50.5922822 C107.594768,53.7994912 108.335935,58.7194701 103.610633,61.5969631 C100.138915,63.7026593 94.5124195,64.1871053 89.3552428,62.8243637 Z M122.038044,57.4518403 C117.052925,57.0847987 112.257575,57.754376 108.507334,59.3411409 C107.948857,60.6168878 106.871279,61.757871 105.357919,62.6758709 C103.799936,63.634701 101.804047,64.3203447 99.5448723,64.6728144 C97.3622722,66.7860023 96.6849987,69.4009981 97.6372584,72.0382324 C98.6783517,74.5898298 100.885974,77.0222486 104.013634,79.0638993 C104.795343,79.5953887 105.888545,79.9346699 107.011822,79.9944031 C108.119929,80.0386257 109.147701,79.8193813 109.861191,79.3865759 L135.038065,64.1271868 C135.752183,63.6947373 136.091494,63.0854091 135.978763,62.4379018 C135.832942,61.7827131 135.213077,61.1560501 134.278412,60.7189016 C130.694876,58.9665411 126.422274,57.8259774 122.038044,57.4518403 Z" id="形状" fill="url(#linearGradient-10)"></path>
                </g>
                <polygon id="路径-50-3" fill="url(#linearGradient-11)" fill-rule="nonzero" opacity="0.323442" points="67 27 285.4 27 256.477222 172.107692 176.2 216.415385 97 172.107692"></polygon>
                <g id="编组-3" transform="translate(137.000000, 0.000000)">
                    <g id="Combined-Shape" transform="translate(2.240566, 0.000000)" fill="url(#linearGradient-12)">
                        <path d="M54.4660103,101.072662 L54.2655363,101.286675 L39.9829236,106.56408 L36.1039832,96.6207333 C25.7818992,82.2607343 18.4397302,66.6464501 14.0774764,49.7778805 C12.3837491,43.3504342 11.0944146,36.8214049 10.2171848,30.2298439 L0.053615161,4.16971473 L11.1263115,0.0517392691 L11.1379669,0 C21.6776198,0 32.2879824,3.25487038 42.9690549,9.76461115 C53.6501275,16.2743519 64.6140394,26.4411183 75.8607907,40.2649103 C77.9541131,54.4179522 76.6238354,68.1798138 71.8699578,81.5504953 C68.5660207,90.838478 62.7647048,97.345867 54.4660103,101.072662 Z" id="path-22-2"></path>
                    </g>
                    <path d="M1.84798142,4.47990366 C-1.36977177,17.7272121 -0.385398463,34.3439141 4.80110135,54.3300095 C9.98760116,74.3161049 19.3660793,92.543098 32.9365358,109.010989 C48.2524789,107.212726 58.2999562,99.6194509 63.0789676,86.2311636 C67.857979,72.8428763 69.1304045,59.0340023 66.896244,44.8045415 C55.5942957,30.9604227 44.5757158,20.7786201 33.8405043,14.2591335 C23.1052927,7.73964694 12.4411185,4.47990366 1.84798142,4.47990366 Z" id="Path-7" fill="url(#linearGradient-13)" fill-rule="nonzero"></path>
                    <path d="M5.76533321,14.7694772 C4.18497899,26.4257653 5.25761146,42.9258665 9.26845737,56.8855335 C13.2793033,70.8452004 21.8212092,86.7847682 33.1281565,101.380948 C45.8540454,98.8230431 53.5116686,91.8880911 57.8709698,82.0359184 C62.2302709,72.1837456 62.2302709,60.0616332 61.3993506,48.4763998 C51.7339491,36.9015831 42.3102177,28.3865489 33.1281565,22.9312973 C23.9460954,17.4760457 14.8251542,14.7554571 5.76533321,14.7694772 Z" id="Path-7-2" fill="url(#linearGradient-14)" fill-rule="nonzero"></path>
                    <path d="M7.7444462,15.8774103 C6.22689051,27.2354842 7.25689979,43.3134471 11.1083667,56.9159702 C14.9598337,70.5184933 23.1623099,86.0502635 34.0199532,100.273015 C46.2401535,97.7805513 53.5934858,91.023023 57.7795614,81.4229081 C61.965637,71.8227931 61.965637,60.0108126 61.1677349,48.7219756 C51.8864074,37.4432888 42.8371468,29.1461032 34.0199532,23.8304186 C25.2027595,18.514734 16.4442572,15.8637489 7.7444462,15.8774103 Z" id="Path-7-2" fill="url(#radialGradient-15)" fill-rule="nonzero"></path>
                    <path d="M43.7025537,71.4817272 C43.7025537,72.9899678 42.7000173,73.6057124 41.1917767,72.6500898 L35.6689543,69.1508247 L35.6689543,76.940444 C35.6689543,78.1958325 34.4135658,78.6558058 33.1537413,77.8575799 C31.76809,76.9771884 30.6454059,75.1431705 30.6429642,73.7559723 L30.6429642,56.171661 C26.0059403,51.97515 22.8052071,45.7141701 22.857781,40.9430018 C22.8916984,35.1526507 27.5947522,33.4294559 33.4065934,37.0779261 C39.2184346,40.7942312 43.9214884,48.477144 43.9554058,54.3104753 C44.0079797,59.1482654 40.8072465,61.3532705 36.1702226,59.6737367 L36.1702226,64.1984586 L41.1917767,67.1272675 C42.4471652,67.9226828 43.7025537,69.9734866 43.7025537,71.4817272 Z M39.714588,51.7210815 C39.714588,48.2911709 36.9340961,43.7489568 33.5041855,41.5757624 C30.0742748,39.402568 27.2937829,40.4213378 27.2937829,43.8512485 C27.2937829,47.2811591 30.0742748,51.8233732 33.5041855,53.9965676 C36.9340961,56.1697619 39.714588,55.1509921 39.714588,51.7210815 Z" id="形状备份-5" fill="url(#linearGradient-16)" fill-rule="nonzero" transform="translate(33.406593, 56.709231) rotate(-4.000000) translate(-33.406593, -56.709231) "></path>
                </g>
            </g>
        </g>
    </g>
</svg>